<?xml version="1.0" standalone="no"?>
<!DOCTYPE svg PUBLIC "-//W3C//DTD SVG 20010904//EN"
 "http://www.w3.org/TR/2001/REC-SVG-20010904/DTD/svg10.dtd">
<svg version="1.0" xmlns="http://www.w3.org/2000/svg"
 width="260.000000pt" height="260.000000pt" viewBox="0 0 260.000000 260.000000"
 preserveAspectRatio="xMidYMid meet">
<metadata>
Created by potrace 1.14, written by Peter Selinger 2001-2017
</metadata>
<g transform="translate(0.000000,260.000000) scale(0.100000,-0.100000)"
fill="#000000" stroke="none">
<path d="M324 1825 l1 -120 190 -2 c105 -1 199 -2 211 -3 20 0 20 -2 20 -397
-1 -396 -1 -398 -24 -435 -26 -41 -85 -75 -128 -72 -16 1 -40 2 -53 3 -36 2
-98 70 -113 124 -9 37 -17 47 -33 47 -27 -1 -254 -46 -261 -52 -9 -10 16 -100
44 -156 32 -66 111 -151 168 -180 64 -33 155 -52 246 -52 232 0 393 110 444
303 10 40 13 170 14 582 l0 531 -364 0 -363 0 1 -121z"/>
<path d="M1651 1931 c-8 -15 -85 -247 -353 -1061 -56 -168 -103 -308 -105
-313 -3 -4 66 -6 153 -5 l158 3 8 30 c5 17 11 37 13 45 11 44 75 243 79 247 4
4 324 7 432 4 28 -1 32 -5 48 -57 9 -30 19 -63 21 -72 2 -9 17 -57 32 -107
l29 -90 157 -3 c86 -1 157 0 157 2 0 5 -50 161 -212 656 -39 118 -80 247 -93
285 -12 39 -50 156 -84 261 l-62 191 -185 0 c-160 0 -186 -2 -193 -16z m249
-476 c34 -115 66 -223 70 -240 5 -16 12 -40 15 -52 l7 -23 -160 0 -159 0 72
250 c78 269 83 285 89 279 2 -2 32 -98 66 -214z"/>
</g>
</svg>
